<svg width="32" height="32" viewBox="0 0 32 32" fill="none" xmlns="http://www.w3.org/2000/svg">
<path d="M0.496276 31.4981L0.502153 31.504C0.658017 31.661 0.843372 31.7856 1.04756 31.8707C1.25176 31.9559 1.47076 31.9998 1.69199 32C1.87813 31.9998 2.06299 31.9691 2.23921 31.9091L11.8329 28.6547L30.2424 10.2449C31.3679 9.11937 32.0001 7.59285 32 6.00117C31.9999 4.40949 31.3676 2.88303 30.2421 1.75759C29.1165 0.632156 27.59 -6.96778e-05 25.9984 5.75975e-09C24.4067 6.96893e-05 22.8803 0.632429 21.7548 1.75797L3.34527 20.1677L0.0911301 29.7612C-0.0114076 30.0596 -0.0277859 30.3807 0.0438735 30.688C0.115533 30.9952 0.272328 31.2759 0.496276 31.4981ZM23.2836 3.28662C24.0046 2.57112 24.9797 2.17049 25.9955 2.17244C27.0112 2.17439 27.9848 2.57877 28.703 3.29703C29.4213 4.01529 29.8256 4.98889 29.8276 6.00465C29.8295 7.02041 29.4288 7.99555 28.7133 8.71653L26.2924 11.1374L20.8626 5.70752L23.2836 3.28662ZM5.23081 21.3396L19.334 7.23618L24.7638 12.6661L10.6606 26.7694L2.44323 29.557L5.23081 21.3396Z" fill="#430F63"/>
</svg>
